<svg width="37" height="32" viewBox="0 0 37 32" fill="none" xmlns="http://www.w3.org/2000/svg">
<path d="M27.0833 25.4167H30.8333M4.58333 22.9167V4.58333C4.58333 2.74238 6.07572 1.25 7.91667 1.25H28.75C30.591 1.25 32.0833 2.74238 32.0833 4.58333V9.58333M4.58333 22.9167H1.25V25.4167C1.25 27.2576 2.74238 28.75 4.58333 28.75H22.0833M4.58333 22.9167H22.0833M32.0833 9.58333H25.4167C23.5757 9.58333 22.0833 11.0757 22.0833 12.9167V27.0833C22.0833 28.9243 23.5757 30.4167 25.4167 30.4167H32.0833C33.9243 30.4167 35.4167 28.9243 35.4167 27.0833V12.9167C35.4167 11.0757 33.9243 9.58333 32.0833 9.58333Z" stroke="#86919C" stroke-width="2.5" stroke-linecap="round" stroke-linejoin="round"/>
</svg>
